<?xml version="1.0" encoding="UTF-8"?>
<svg version="1.1" viewBox="0 0 1000 1000" width="1000" height="1000" xmlns="http://www.w3.org/2000/svg">
<path transform="translate(455,45)" d="m0 0 5 1 16 8 10 6 11 6 14 9 11 6 27 16 11 7 2 3v16l1 2 8 2 9 1 11 3 15 3 9 3 13 4 22 8 11 5 8 3 16 8 23 13 14 9 10 7 12 9 13 10v2l4 2 11 9v2h2v2h2v2h2v2h2v2h2v2h2v2h2l7 8 8 9v2h2v2h2l9 12 10 13 11 17 6 9 4 7v3h2l9 19 7 14 6 16 3 6 3 11 3 7 4 14 6 26 3 14 1 11 1 3 2 21v55l-2 22-1 3-1 11-5 23-4 17-4 14-3 8-3 10-5 12-7 16-9 19-12 21-18 27-14 18-12 14-36 36-10 8-9 7-4 2v64h27l3 3v20l-1 2-529 1-3-2v-23l1-1h29l1-26 3-1-1-15-1-2-1-28-6-3v-2l-4-2-8-6v-2l-4-2-30-30-8-10-2-4h-2l-8-11-13-18-5-8-7-11-6-12-7-12-9-21-10-24-5-18-3-8-1-7-1-1-3-16-3-13-5-40v-50l3-28 4-25 3-11 3-15 3-8 3-12 3-7 6-17 8-18 8-16 11-20 7-11 8-12 12-16 9-11 12-14 27-27 11-9 10-8 12-9 13-9 16-10 14-8 19-9 5-3 14-5 12-5 13-5 12-3 8-3 7-1 1-1 17-3 13-3 13-1z" fill="#C8FBFD"/>
<path transform="translate(481,386)" d="m0 0 4 1 12 7 16 8 27 14 38 20 14 7v2h4v2l4 1-1 3-19 8-7-2-8-4v-2l-5-1-19-9-10-6-8-4-4-1v-2h-4v-2h-4v-2l-8-1-2 24v50l-1 9-4 8-1 8 4 6 1 1v361l67-1 14-1 1-203-4-2-11-7v-2l-5-2-9-6v-2l-5-2-10-7v-3l93 2 5 4v2l5 2 26 20 2 1v56l-4 2-13 3-8 3-13 3-1 2-2 65v72h57l1-145 4-1 10 6 11 6 16 9 8 5 1 52v70h27l3 3v20l-1 2-529 1-3-2v-23l1-1h29l1-26 10-4 17-8 5-1v-2l8-3 15-7 19-9 4-2h4v-2l8-3 10-5 15-7 1 2-1 30-12 5-13 7h-4v2h-4v2l-8 3-17 9-23 11-11 5-1 3h33l14-8 4-2h3v-2l14-7 13-7 7-4 5 1-1 27h84l1-28 1-5 1-157-9-3-11-3-8-3-11-3-7-3-13-4-7-3-1-3v-84l-1-73v-77l2 2 9 1 2 1 9 1 12 3 18 3 1 1 19 3 11 3 18 3v-14l-1-1-7-1-9-3-7-1-1-1-7-1-1-1-7-1-9-3-14-3-11-3-1-1-9-2-1-3 14-7 19-10 14-8 14-7z" fill="#2C2165"/>
<path transform="translate(774,327)" d="m0 0 4 1 4 31 2 18v7l-10 7-20 12-23 14-16 10-20 12-24 15v1l15 1 67 2 4 2-5 4-16 8-14 4-85 14-17 3-15 1-1 2-14 2-4 1v97l-1 55-4 1h-43v3l5 2 10 7v2l5 2 9 6v2l5 2 10 7v203l-1 1-14 1-67 1-1-1v-361l-4-5-1-7 4-10 1-1 1-9v-50l2-24 4-1 5 2v2h4v2h4v2l5 1 12 6 17 9 8 4 4 1v2l4 1 9 4 10-3 15-5 2-3 23-11 16-9 16-8 21-12 20-11 11-7 33-16 12-34 3-5z" fill="#FCFCFC"/>
<path transform="translate(463,289)" d="m0 0h2l1 60 8 5 4 4-1 30h-2l-1 3-23 12-12 7-14 7-9 5h-3l3 3 7 1 9 3 10 3 15 3 1 1 7 1 1 1 7 1 1 1 15 3 1 1 7 1 2 2v14l-3 1-16-3-11-3-9-1-10-2-1-1-18-3-12-3-9-1-2-1-9-1-1-1v75l1 73v86l7 3 13 4 7 3 11 3 8 3 11 3 9 4v157l-1 5-1 28-1 1h-82l-2-1v-27l-6 1-10 6-14 7-5 3h-3v2l-16 8-5 3h-33l-1-2 2-3 23-11 19-9 13-7h4v-2h4v-2l8-3 15-8 5-1 1-30h-2l-15 7-12 6h-4v2l-13 5-16 8-16 7-5 1v2l-8 3-20 10-3-1h2v-15l12-6 8-3 5-1v-2l13-5 15-7 10-5 13-5 5-3 13-5 15-7 4-3 1-32-20 10-8 3-5 3-8 3-15 7-5 3-8 3-14 7-8 3-16 8-7 1-1-11-1-3h4l1-3 8-3 5-3 8-3 5-3h4v-2l8-3 24-12h4v-2l8-3 14-7 9-4 12-6v-27l-13 5-10 5-10 4-8 4-10 4-10 5-8 3-10 5h-4v2l-13 5-14 7h-4l1-14 17-8 5-3h4v-2h4v-2l13-5 16-8 16-7 5-3h4v-2l8-3 20-10 1-31-8 2-1-95-1-5-1-129-1-40v-59l8-5 15-9 13-8 9-5 15-9 28-16z" fill="#F8FAFA"/>
<path transform="translate(481,386)" d="m0 0 4 1 12 7 16 8 27 14 38 20 14 7v2h4v2l4 1-1 3-19 8-7-2-8-4v-2l-5-1-19-9-10-6-8-4-4-1v-2h-4v-2h-4v-2l-8-1-2 24v50l-1 9-4 8-1 8 4 6 1 1v52l-10 4-16 3-11 3-16 3-1 1-8 1-1 1-15 3-11 3-8 2h-4l-1-15-1-73v-77l2 2 9 1 2 1 9 1 12 3 18 3 1 1 19 3 11 3 18 3v-14l-1-1-7-1-9-3-7-1-1-1-7-1-1-1-7-1-9-3-14-3-11-3-1-1-9-2-1-3 14-7 19-10 14-8 14-7z" fill="#2C2165"/>
<path transform="translate(774,327)" d="m0 0 4 1 4 31 2 18v7l-10 7-20 12-23 14-16 10-20 12-24 15v1l15 1 67 2 4 2-5 4-16 8-14 4-85 14-17 3-15 1-1 2-14 2-23 11-20 11-15 6-14 3-9 1-8-1v282h-1l-1-282-4-5-1-7 4-10 1-1 1-9v-50l2-24 4-1 5 2v2h4v2h4v2l5 1 12 6 17 9 8 4 4 1v2l4 1 9 4 10-3 15-5 2-3 23-11 16-9 16-8 21-12 20-11 11-7 33-16 12-34 3-5z" fill="#F7FDD2"/>
<path transform="translate(476,249)" d="m0 0 4 1 17 11 16 10 2 1v2l6 2 12 8 2 2-1 98-2 1-15-7v-2h-4v-2l-4-1-16-8-19-10-9-6v-73l-7 3-12 7-16 8-12 7-19 9-20 12-22 11-1 20-1 57v24l1 6v210l-10 9-6 4h-4v-233l11 2 6 2v-24l-17-4v-85l17-9 12-6 17-9 16-8 21-11 10-5 17-9 17-8z" fill="#2C2165"/>
<path transform="translate(455,45)" d="m0 0 5 1 16 8 10 6 11 6 14 9 11 6 27 16 11 7 2 3-1 91-1 3-10 1-10 2-1 1-7 1-1 1-11 2v-16l-4-4-7-3v-2l-4-1-12-7-11-6-12-7-15-9-2-3 1-21z" fill="#2C2165"/>
<path transform="translate(670,736)" d="m0 0 9 1 7 4v148l-1 1h-57l-1-1v-72l2-65 2-3 13-3 8-3 13-3 5-1z" fill="#F9FAFB"/>
<path transform="translate(581,685)" d="m0 0h1v203l-1 1-14 1h-59v-1l41-1 1-132 1-35 1-12 10-7 16-10 3-1z" fill="#C6F8FB"/>
<path transform="translate(481,386)" d="m0 0 4 1 12 7 16 8 27 14 38 20 14 7v2h4v2l4 1-1 3-19 8-7-2-8-4v-2l-5-1-19-9-10-6-8-4-4-1v-2h-4v-2h-4v-2l-8-1-3 37h-1l-1-13-1-1-7-1-9-3-7-1-1-1-7-1-1-1-7-1-9-3-14-3-11-3-1-1-9-2-1-3 14-7 19-10 14-8 14-7z" fill="#2C2165"/>
<path transform="translate(559,202)" d="m0 0 2 2v161l-2 48-5-1-9-7-1-125-4-1-2-1v-2l-4-1-10-7-4-2-1-2v-17l1-34 3-2 15-3 9-2 1-1 10-2z" fill="#2C2165"/>
<path transform="translate(336,430)" d="m0 0 11 2 1 1h6l2 7v210l-10 9-6 4h-4z" fill="#2C2165"/>
<path transform="translate(447,173)" d="m0 0h3l1 6v23l-1 49-15 8-4 2h-3v2l-15 8-11 6-8 4-4-2v-24l1-2 11-3 10-4 16-6 10-3 10-4-1-2-18 6-9 4-10 3-7 3-10 3-2 1v-41l5-5 12-7 27-18h3v-2z" fill="#2C2165"/>
<path transform="translate(451,151)" d="m0 0 4 1 3 3 14 8 10 6 21 12 6 3v2l5 1 6 4-1 54-5-2-10-7-12-8v-2l-6-2-3-3-7-3-11 12-10 9-4 2v-62l-1-7v-15z" fill="#FAFBFB"/>
<path transform="translate(378,765)" d="m0 0h3v32l-5 4-20 9-12 5-5 3-13 5-16 8-13 5-5 1v2l-8 3-15 7h-3l-1-2v-28l6-4 18-8 5-3 8-3 5-3 8-3 15-7 14-7 8-3 5-3 8-3 12-6z" fill="#2C2165"/>
<path transform="translate(375,673)" d="m0 0h4v30l-5 3-19 9-5 1v2l-8 3-32 15-10 5h-4v2h-4v2l-8 3-16 8-5-1v-28l17-9 8-4 8-3 9-5 8-3 10-5 17-8 22-11 8-3z" fill="#2C2165"/>
<path transform="translate(375,721)" d="m0 0h4l1 14v13l-14 8-16 7-10 5h-4v2l-8 3-24 12h-4v2l-8 3-5 3-8 3-5 3-9 2-1-5v-23l3-3 16-8 9-4h4v-2l8-3 10-5 8-3 12-6 10-4 8-4 8-3 11-5z" fill="#2C2165"/>
<path transform="translate(616,493)" d="m0 0 4 1v135l-1 2h-5l-9-5-1-2v-20l1-43 13-2v-3l-7 2h-6v-62l6-2z" fill="#2C2165"/>
<path transform="translate(411,422)" d="m0 0h2l3 3 7 1 9 3 10 3 15 3 1 1 7 1 1 1 7 1 1 1 15 3 1 1 7 1 2 2v14l-3 1-16-3-11-3-9-1-10-2-1-1-18-3-12-3-9-1-2-1-9-1-1-1v148l-2-3v-156l4-3h4v-2h4v-2h3z" fill="#8BB4C6"/>
<path transform="translate(503,422)" d="m0 0 8 2v2h4v2h4v2l5 1 12 6 17 9 8 4 4 1v2l4 1 9 4h5l-2 2-9 3-16 7h-7l-11-5-14-5-13-6-9-3 1 4v41l-2 1-1-34v-16l2-24z" fill="#C5F8FA"/>
<path transform="translate(502,451)" d="m0 0 5 1 16 6 11 5 14 5 4 3-4 1v2l-15 8-1 3-4 1-2-1-10 6-11 9-4 4v-7l1-1z" fill="#FCFCFC"/>
<path transform="translate(683,369)" d="m0 0h3l-1 5-11 16-8 11-5 5-9 7-19 12-16 9-8 4-4-1 6-7h2v-2l7-6 38-38 10-7z" fill="#FAFFD3"/>
<path transform="translate(352,311)" d="m0 0 4 1-19 9-1 85 7 1 8 2 2 1v24h-5l-1-1-7-1-4-2 1 233 4-2 5-2-5 5-5 1-1-1v-344z" fill="#8CB6C7"/>
<path transform="translate(355,615)" d="m0 0h1v35l-10 9-6 4h-4v-43l9-1 9-3z" fill="#2C2165"/>
<path transform="translate(561,123)" d="m0 0 2 2v18l-1 60v163l-2 47h-1v-23l1-25v-161h-2l-10 2-1 1-16 3-10 3-1 34h-1v-53l2-1-1 16 4-2 7-1 1-1 7-1 1-1 10-2h10z" fill="#8CB6C7"/>
<path transform="translate(356,333)" d="m0 0h1v318l-6 5-2-1 6-5v-210l-1-6v-24l1-57z" fill="#8CB6C7"/>
<path transform="translate(495,579)" d="m0 0h4v3l-9 3-16 3-11 3-16 3-1 1-8 1-1 1-15 3-11 3-11 2v-3l4-2 17-4 11-3 7-1 1-1 16-3 9-2 1-1 17-3z" fill="#8CB6C7"/>
<path transform="translate(391,208)" d="m0 0 1 2v40l6-3 10-3 7-3 10-3 9-4 14-4v4l-10 4-10 3-21 8-11 4h-5v26l3 2v2l-4-2-1-1v-34l1-30-1-6z" fill="#8CB6C7"/>
<path transform="translate(615,492)" d="m0 0 7 1v136l-3 4-5-1v-1h5v-137l-14 2v-2z" fill="#8CB6C7"/>
<path transform="translate(604,496)" d="m0 0h1v62l8-2h5v3l-7 2h-6v65l3 1h-4l-2-3v-20l1-1z" fill="#8CB6C7"/>
<path transform="translate(502,423)" d="m0 0h1v73l-2 1-1-34v-16z" fill="#8CB6C7"/>
<path transform="translate(348,614)" d="m0 0h7l-2 4-8 2h-8l3-4z" fill="#8CB6C7"/>
<path transform="translate(495,514)" d="m0 0h1v9l3 1 1 5-5-5-1-7z" fill="#A5C5D3"/>
<path transform="translate(596,445)" d="m0 0 7 3v3l-6 2-2-1 4-2v-2l-3-1z" fill="#B3CED9"/>
</svg>
