<!-- icon666.com - MILLIONS vector ICONS FREE --><svg enable-background="new 0 0 512 512" viewBox="0 0 512 512" xmlns="http://www.w3.org/2000/svg"><g id="_x30_9_x2C__Account_x2C__profile_x2C__user_x2C__person_x2C__people"><g id="XMLID_15_"><g id="XMLID_16_"><g id="XMLID_34_"><path id="XMLID_35_" d="m256 290c-31.981 0-58-26.019-58-58s26.019-58 58-58 58 26.019 58 58-26.019 58-58 58zm0-96c-20.953 0-38 17.047-38 38s17.047 38 38 38 38-17.047 38-38-17.047-38-38-38z"></path></g><g id="XMLID_32_"><path id="XMLID_33_" d="m365.964 346.001c-3.087 0-6.132-1.425-8.089-4.111-23.682-32.492-61.766-51.89-101.875-51.89-40.11 0-78.194 19.398-101.875 51.89-3.253 4.462-9.508 5.446-13.972 2.191-4.463-3.253-5.444-9.508-2.191-13.971 27.433-37.639 71.559-60.11 118.038-60.11s90.605 22.471 118.037 60.11c3.253 4.463 2.272 10.718-2.191 13.971-1.778 1.296-3.839 1.92-5.882 1.92z"></path></g><g id="XMLID_28_"><path id="XMLID_29_" d="m256 402c-80.505 0-146-65.495-146-146s65.495-146 146-146 146 65.495 146 146-65.495 146-146 146zm0-272c-69.477 0-126 56.523-126 126s56.523 126 126 126 126-56.523 126-126-56.523-126-126-126z"></path></g><g id="XMLID_24_"><path id="XMLID_25_" d="m256 482c-60.367 0-117.121-23.508-159.806-66.193s-66.194-99.44-66.194-159.807 23.508-117.12 66.194-159.806 99.439-66.194 159.806-66.194 117.121 23.508 159.807 66.194 66.193 99.439 66.193 159.806-23.508 117.121-66.193 159.807-99.44 66.193-159.807 66.193zm0-432c-113.589 0-206 92.411-206 206s92.411 206 206 206 206-92.411 206-206-92.411-206-206-206z"></path></g><g id="XMLID_17_"><circle id="XMLID_23_" cx="475" cy="95" r="15"></circle><circle id="XMLID_22_" cx="35" cy="415" r="15"></circle><circle id="XMLID_21_" cx="50" cy="70" r="10"></circle><circle id="XMLID_20_" cx="400" cy="30" r="10"></circle><circle id="XMLID_19_" cx="460" cy="430" r="10"></circle><circle id="XMLID_18_" cx="110" cy="490" r="10"></circle></g></g></g></g></svg>