<!-- icon666.com - MILLIONS vector ICONS FREE --><svg id="Capa_1" enable-background="new 0 0 554.516 554.516" viewBox="0 0 554.516 554.516" xmlns="http://www.w3.org/2000/svg"><g><path d="m473.187 114.6c-8.167-6.125-19.752-4.47-25.877 3.697s-4.47 19.752 3.697 25.877c73.5 55.125 88.396 159.397 33.271 232.897-31.417 41.889-80.722 66.542-133.084 66.542h-140.219l42.384-42.384c7.092-7.343 6.889-19.044-.454-26.136-7.163-6.918-18.519-6.918-25.682 0l-73.935 73.935c-7.216 7.218-7.216 18.918 0 26.136l73.935 73.935c7.343 7.092 19.044 6.888 26.136-.455 6.918-7.163 6.918-18.519 0-25.681l-42.383-42.384h140.219c112.292 0 203.323-91.031 203.323-203.323-.002-63.995-30.133-124.258-81.331-162.656z"></path><path d="m36.968 277.258c.102-91.833 74.522-166.253 166.355-166.355h140.219l-42.384 42.384c-7.343 7.092-7.546 18.793-.454 26.136s18.793 7.546 26.136.454c.154-.149.305-.3.454-.454l73.935-73.935c7.216-7.218 7.216-18.918 0-26.136l-73.935-73.936c-7.343-7.092-19.044-6.888-26.136.454-6.918 7.163-6.918 18.519 0 25.682l42.384 42.383h-140.219c-112.292.001-203.323 91.031-203.323 203.323 0 63.997 30.131 124.26 81.329 162.658 8.167 6.125 19.752 4.47 25.877-3.697s4.47-19.752-3.697-25.877c-42.051-31.281-66.747-80.674-66.541-133.084z"></path></g></svg>